<svg width="41" height="45" viewBox="0 0 41 45" fill="none" xmlns="http://www.w3.org/2000/svg">
<path d="M40.956 26H32.3692C31.3071 28.3083 29.3713 30.1077 27 30.9512C28.9936 31.7539 32.7898 33.0222 36.7079 34C38.8131 31.7593 40.2936 28.9998 41 26H40.956Z" fill="#F04451"/>
<path d="M23.393 31.6349C20.6803 30.0511 18.1948 28.1424 16.5617 26C16.4822 26.4445 16.4144 26.9122 16.3558 27.3956C16.3548 27.4034 16.3539 27.4123 16.353 27.4201C16.1117 29.4282 15.9076 33.4872 16.0436 37.5975C16.1205 39.924 16.306 42.2666 16.6563 44.2623C17.1384 44.5111 18.0856 45 18.0856 45L22.3605 39.4488C22.6312 39.4771 22.904 39.4982 23.1782 39.5147C23.1881 39.5153 23.1979 39.5163 23.2078 39.5169C23.3502 39.5264 23.4926 39.5298 23.635 39.5361C23.858 39.544 24.0809 39.5524 24.3059 39.5524C24.3108 39.5524 24.3158 39.5521 24.3207 39.5521C28.1566 39.5809 31.9004 38.4208 35 36.243C34.9573 36.2344 34.9118 36.224 34.8685 36.2149C31.8788 35.594 27.3902 33.9686 23.393 31.6349Z" fill="#F04451"/>
<path d="M18 17C17.6094 17.0514 17.2026 17.118 16.788 17.1926C16.7197 17.2049 16.6533 17.2153 16.5846 17.2281C14.6011 17.5978 10.6706 18.6025 6.76112 19.9323C4.46646 20.7128 2.17901 21.6051 0.296762 22.5473C0.19667 23.0645 0 24.0808 0 24.0808L6.64663 26.3487C6.64663 26.3487 6.64961 26.3462 6.652 26.3443C7.47445 30.6124 9.90819 34.4181 13.4662 37C13.4618 36.9562 13.4584 36.9092 13.4543 36.8646C13.165 33.7639 13.474 28.7918 14.7307 24.2106C15.4695 21.5172 16.5346 18.9596 18 17Z" fill="#F04451"/>
<path d="M19.943 14.3604C22.8091 14.2583 25.6389 14.5103 28 15.3268C27.8334 14.9672 27.647 14.5967 27.4505 14.2211C27.4181 14.1593 27.3882 14.0987 27.3551 14.0365C26.4023 12.2434 24.2468 8.77216 21.778 5.419C20.329 3.4509 18.7723 1.5234 17.287 0C16.749 0.0597605 15.692 0.177128 15.692 0.177128L15.4391 7.24251C15.4391 7.24251 15.4424 7.24462 15.4451 7.24631C11.4956 9.3221 8.4794 12.8057 7 17C7.0417 16.9826 7.08693 16.9652 7.12947 16.9478C10.0904 15.7357 15.0679 14.5342 19.943 14.3604Z" fill="#F04451"/>
<path d="M31.0211 14.7119C31.4747 15.7474 31.8744 16.8048 32.2184 17.8801C32.2311 17.9201 32.2439 17.96 32.2563 18H41C40.8349 17.3567 40.6317 16.7235 40.3915 16.1033C40.3293 15.9424 40.2656 15.7823 40.1987 15.6237C37.6869 9.67093 31.8757 5.39934 25 5C26.8416 7.05628 29.1922 10.5923 30.9125 14.4657C30.949 14.5477 30.9851 14.6298 31.0211 14.7119Z" fill="#F04451"/>
</svg>
