<svg width="71" height="70" viewBox="0 0 71 70" fill="none" xmlns="http://www.w3.org/2000/svg">
<path d="M65.5183 0.558583C53.0496 -0.0777423 40.5516 0.0813999 28.0995 1.03507C25.436 1.22963 22.7687 1.46719 20.1297 1.74026C14.2666 2.30908 8.43684 3.18844 2.66485 4.37466C1.80809 6.15294 0.124635 9.64787 0.124635 9.64787L15.251 19.94L21.4638 24.1673L21.4872 24.1564C20.256 40.3961 25.1806 56.4896 35.2755 69.2165C35.3024 69.0541 35.3361 68.8804 35.3647 68.715C38.5244 53.0308 44.2009 37.9601 52.1723 24.0916C56.9355 15.3616 63.2303 7.56405 70.753 1.07501C69.3194 0.890911 67.814 0.746218 66.2731 0.623148C66.0194 0.602582 65.7742 0.577463 65.5183 0.558583Z" fill="#343849"/>
</svg>
