<svg width="41" height="51" viewBox="0 0 41 51" fill="none" xmlns="http://www.w3.org/2000/svg">
<path fill-rule="evenodd" clip-rule="evenodd" d="M6.53388 0.00586206C7.92577 -0.0632848 9.24344 0.487646 10.544 1.2168C11.8455 1.94652 13.4266 3.03357 15.3896 4.38316L15.3896 4.38319L15.4695 4.43806L34.1901 17.3085L34.2647 17.3598L34.2649 17.3599C35.8107 18.4226 37.0758 19.2924 38.0166 20.073C38.9775 20.8702 39.8009 21.7319 40.2566 22.8487C40.9359 24.5136 40.9359 26.3783 40.2566 28.0432C39.8009 29.16 38.9775 30.0216 38.0166 30.8189C37.0758 31.5995 35.8106 32.4693 34.2648 33.532L34.1901 33.5833L15.4695 46.4538L15.3896 46.5087C13.4266 47.8583 11.8455 48.9454 10.544 49.6751C9.24344 50.4042 7.92577 50.9552 6.53388 50.886C4.51242 50.7856 2.63791 49.7995 1.40995 48.1907C0.56442 47.0829 0.271912 45.6849 0.135987 44.2001C-4.50326e-05 42.7142 -2.59591e-05 40.7954 7.43743e-07 38.4133V38.3164V12.5755V12.4786C-2.59591e-05 10.0964 -4.50326e-05 8.17764 0.135987 6.69172C0.271912 5.20695 0.564423 3.80901 1.40995 2.70121C2.63791 1.09233 4.51242 0.106285 6.53388 0.00586206Z" fill="#F04451"/>
</svg>
