<svg width="257" height="62" viewBox="0 0 257 62" fill="none" xmlns="http://www.w3.org/2000/svg">
<path d="M251 1L244.979 10.8531L256.523 11.1407L251 1ZM0.522588 1.87868C1.93943 2.64849 3.38026 3.42349 4.84384 4.20276L5.78379 2.4374C4.32512 1.66075 2.88925 0.888414 1.47741 0.12132L0.522588 1.87868ZM13.6491 8.79947C16.5386 10.2788 19.4992 11.7667 22.5229 13.2572L23.4072 11.4633C20.3925 9.97729 17.441 8.49393 14.5606 7.01922L13.6491 8.79947ZM31.4609 17.5808C34.4141 18.9826 37.4164 20.3815 40.4613 21.7724L41.2923 19.9532C38.2564 18.5664 35.263 17.1717 32.3185 15.774L31.4609 17.5808ZM49.5232 25.8313C52.5325 27.1525 55.5754 28.4616 58.6459 29.7544L59.422 27.9111C56.361 26.6224 53.3274 25.3172 50.3271 24L49.5232 25.8313ZM67.8289 33.5362C70.8906 34.7687 73.9733 35.9811 77.0714 37.1691L77.7875 35.3017C74.7 34.1178 71.6275 32.9094 68.5758 31.6809L67.8289 33.5362ZM86.3732 40.6434C89.4855 41.7744 92.6076 42.8771 95.734 43.947L96.3816 42.0547C93.2675 40.989 90.1572 39.8906 87.0563 38.7637L86.3732 40.6434ZM105.162 47.0678C108.331 48.0805 111.499 49.0553 114.66 49.9878L115.226 48.0696C112.08 47.1414 108.927 46.171 105.771 45.1627L105.162 47.0678ZM124.228 52.6842C127.456 53.5501 130.671 54.3667 133.866 55.1291L134.33 53.1837C131.154 52.4258 127.957 51.6138 124.746 50.7525L124.228 52.6842ZM143.575 57.2881C146.865 57.9643 150.128 58.5761 153.355 59.1178L153.686 57.1455C150.484 56.6079 147.246 56.0007 143.977 55.329L143.575 57.2881ZM163.204 60.563C166.558 60.9807 169.865 61.3125 173.114 61.5515L173.261 59.5569C170.047 59.3205 166.774 58.9922 163.451 58.5783L163.204 60.563ZM183.069 61.9889C186.472 62.0309 189.797 61.9544 193.033 61.7503L192.907 59.7542C189.725 59.9549 186.45 60.0305 183.094 59.989L183.069 61.9889ZM202.973 60.6662C206.376 60.1241 209.654 59.4093 212.789 58.5088L212.237 56.5865C209.187 57.4625 205.989 58.1605 202.659 58.6911L202.973 60.6662ZM222.212 55.0251C225.314 53.5857 228.223 51.9038 230.914 49.9618L229.744 48.3399C227.163 50.2022 224.366 51.8211 221.37 53.2109L222.212 55.0251ZM238.425 43.2142C240.634 40.7433 242.602 38.003 244.306 34.979L242.564 33.9969C240.93 36.8967 239.046 39.519 236.934 41.8811L238.425 43.2142ZM248.365 25.7895C249.381 22.764 250.193 19.527 250.79 16.0701L248.819 15.7299C248.239 19.0933 247.45 22.2306 246.469 25.1527L248.365 25.7895Z" fill="white"/>
</svg>
