<svg width="237" height="122" viewBox="0 0 237 122" fill="none" xmlns="http://www.w3.org/2000/svg">
<path d="M121.448 110.602L120.802 111.366L121.448 110.602ZM212.908 0L223.829 3.74995L215.121 11.333L212.908 0ZM0.455375 80.3958C1.90336 79.4555 3.59834 78.6644 5.4975 78.0115L6.14777 79.9028C4.36807 80.5147 2.82763 81.24 1.54463 82.0731L0.455375 80.3958ZM16.2443 75.8699C19.5826 75.5549 23.2198 75.458 27.0823 75.5702L27.0242 77.5694C23.2295 77.4591 19.6757 77.555 16.4322 77.861L16.2443 75.8699ZM37.8667 76.3591C41.3246 76.7514 44.8955 77.2801 48.5394 77.9415L48.1823 79.9094C44.5796 79.2555 41.0528 78.7333 37.6413 78.3464L37.8667 76.3591ZM59.0965 80.1842C62.5445 81.0216 66.0236 81.9685 69.503 83.022L68.9235 84.9362C65.4797 83.8935 62.0364 82.9564 58.6244 82.1277L59.0965 80.1842ZM79.7341 86.4346C83.1123 87.6686 86.4625 89.0025 89.7557 90.4336L88.9585 92.2679C85.7033 90.8533 82.3902 89.5341 79.0478 88.3132L79.7341 86.4346ZM99.5089 95.0541C102.748 96.7253 105.897 98.4972 108.924 100.367L107.873 102.069C104.893 100.228 101.789 98.4808 98.5919 96.8315L99.5089 95.0541ZM117.863 106.462C119.318 107.56 120.73 108.686 122.093 109.838L120.802 111.366C119.468 110.238 118.085 109.136 116.658 108.058L117.863 106.462ZM122.093 109.838C123.282 110.843 124.531 111.769 125.836 112.618L124.744 114.294C123.372 113.401 122.056 112.425 120.802 111.366L122.093 109.838ZM134.182 116.773C137.055 117.831 140.09 118.621 143.246 119.155L142.913 121.127C139.645 120.574 136.489 119.754 133.491 118.649L134.182 116.773ZM152.637 119.992C155.72 120.039 158.87 119.878 162.054 119.518L162.279 121.506C159.015 121.874 155.779 122.04 152.607 121.992L152.637 119.992ZM171.384 117.921C174.428 117.226 177.473 116.362 180.491 115.338L181.134 117.232C178.052 118.278 174.942 119.16 171.829 119.871L171.384 117.921ZM189.305 111.855C192.177 110.555 194.995 109.11 197.734 107.529L198.733 109.262C195.937 110.875 193.061 112.35 190.131 113.677L189.305 111.855ZM205.686 102.389C208.258 100.533 210.722 98.5485 213.052 96.4444L214.392 97.9287C212.006 100.084 209.485 102.114 206.857 104.011L205.686 102.389ZM219.674 89.7122C221.756 87.3196 223.668 84.8117 225.384 82.1977L227.056 83.2952C225.288 85.9884 223.32 88.5679 221.183 91.0248L219.674 89.7122ZM229.95 73.9697C231.255 71.1215 232.331 68.1745 233.149 65.1379L235.08 65.6584C234.232 68.8065 233.117 71.8579 231.768 74.8027L229.95 73.9697ZM234.793 55.895C235.062 52.8447 235.073 49.719 234.8 46.5255L236.793 46.3553C237.076 49.6641 237.065 52.9056 236.785 56.0709L234.793 55.895ZM233.228 37.2291C232.491 34.3048 231.513 31.3316 230.277 28.3149L232.128 27.5567C233.398 30.6578 234.406 33.7208 235.167 36.74L233.228 37.2291ZM226.17 19.8368C224.694 17.1974 223.017 14.5298 221.128 11.8374L222.765 10.6887C224.691 13.434 226.404 16.159 227.915 18.8605L226.17 19.8368Z" fill="white"/>
</svg>
