<svg width="262" height="136" viewBox="0 0 262 136" fill="none" xmlns="http://www.w3.org/2000/svg">
<path d="M175.192 8.55314V9.55314V8.55314ZM219.241 136L230.67 134.352L223.528 125.279L219.241 136ZM0.292042 1.70626C1.55352 2.97077 2.81399 4.18944 4.07341 5.36352L5.4372 3.90062C4.19584 2.74337 2.95274 1.54152 1.70796 0.293745L0.292042 1.70626ZM11.9299 12.1322C14.7614 14.3751 17.5867 16.4044 20.4052 18.2348L21.4945 16.5574C18.7303 14.7623 15.9558 12.7698 13.1717 10.5645L11.9299 12.1322ZM29.4288 23.4455C32.6325 25.0703 35.8252 26.4553 39.0056 27.6227L39.6948 25.7452C36.5885 24.605 33.4677 23.2514 30.3334 21.6618L29.4288 23.4455ZM49.0002 30.6106C52.4533 31.4148 55.8879 31.9857 59.3023 32.3534L59.5164 30.3649C56.1795 30.0055 52.825 29.4478 49.4539 28.6627L49.0002 30.6106ZM69.7287 32.8759C73.2234 32.8582 76.6934 32.6551 80.1364 32.3006L79.9315 30.3111C76.5472 30.6596 73.1425 30.8586 69.7185 30.8759L69.7287 32.8759ZM90.437 30.8063C93.8508 30.1764 97.2361 29.4269 100.59 28.5924L100.108 26.6516C96.7867 27.4778 93.4418 28.2181 90.0741 28.8395L90.437 30.8063ZM110.597 25.8568C113.928 24.8741 117.227 23.839 120.491 22.7872L119.877 20.8836C116.623 21.9324 113.341 22.9621 110.031 23.9385L110.597 25.8568ZM130.319 19.5693C133.633 18.4788 136.906 17.4092 140.139 16.3981L139.543 14.4892C136.294 15.5051 133.009 16.5787 129.693 17.6694L130.319 19.5693ZM150.016 13.499C153.398 12.5877 156.727 11.7915 160.003 11.1575L159.623 9.19392C156.29 9.83909 152.913 10.6472 149.496 11.5679L150.016 13.499ZM170.113 9.75371C171.823 9.62241 173.516 9.55314 175.192 9.55314V7.55314C173.461 7.55314 171.717 7.62469 169.959 7.75957L170.113 9.75371ZM175.192 9.55314C176.858 9.55314 178.506 9.5819 180.136 9.63876L180.206 7.63997C178.552 7.5823 176.881 7.55314 175.192 7.55314V9.55314ZM189.919 10.3355C193.258 10.6986 196.507 11.185 199.66 11.7878L200.035 9.82337C196.828 9.21025 193.526 8.71602 190.135 8.34718L189.919 10.3355ZM209.194 14.0434C212.423 14.9623 215.528 16.0127 218.5 17.1854L219.234 15.325C216.199 14.1274 213.032 13.0561 209.741 12.1198L209.194 14.0434ZM227.386 21.2623C230.345 22.8282 233.131 24.5315 235.73 26.3599L236.881 24.724C234.21 22.8452 231.352 21.0982 228.321 19.4945L227.386 21.2623ZM243.296 32.5246C245.708 34.8066 247.881 37.2239 249.8 39.7607L251.395 38.5541C249.406 35.9255 247.159 33.4263 244.671 31.0719L243.296 32.5246ZM254.925 48.0009C256.373 50.9095 257.525 53.9338 258.363 57.0562L260.295 56.5378C259.422 53.2839 258.222 50.1348 256.715 47.1093L254.925 48.0009ZM259.912 66.6141C260.101 69.7717 259.987 73.0068 259.552 76.3045L261.535 76.5659C261.986 73.1446 262.105 69.7819 261.908 66.4944L259.912 66.6141ZM257.446 85.8076C256.519 88.7947 255.331 91.8203 253.871 94.8738L255.676 95.7365C257.175 92.5999 258.399 89.4843 259.356 86.4006L257.446 85.8076ZM249.116 103.403C247.426 106.052 245.53 108.714 243.418 111.383L244.986 112.624C247.138 109.905 249.075 107.187 250.802 104.478L249.116 103.403ZM236.977 118.822C234.817 121.117 232.493 123.412 230 125.702L231.354 127.174C233.88 124.853 236.238 122.524 238.434 120.193L236.977 118.822Z" fill="white"/>
</svg>
