<svg width="254" height="123" viewBox="0 0 254 123" fill="none" xmlns="http://www.w3.org/2000/svg">
<path d="M150.402 18.093L150.979 18.9096L151.016 18.8837L151.05 18.8546L150.402 18.093ZM241.927 123L251.139 116.038L240.504 111.541L241.927 123ZM5.96259 0.563808C5.13533 2.27042 4.39882 3.92443 3.75018 5.52706L5.6041 6.27739C6.23479 4.71908 6.95297 3.1058 7.76229 1.43619L5.96259 0.563808ZM0.63681 15.7719C-0.119023 19.7622 -0.191349 23.3574 0.362955 26.5786L2.33398 26.2394C1.82709 23.2938 1.8823 19.943 2.60187 16.1442L0.63681 15.7719ZM4.89679 36.4933C7.14318 39.1792 10.0796 41.3408 13.5451 43.0455L14.4279 41.2508C11.1594 39.6431 8.46368 37.6406 6.43094 35.2102L4.89679 36.4933ZM23.7141 46.5109C27.0025 47.2526 30.5433 47.7649 34.2775 48.0734L34.4422 46.0802C30.7838 45.778 27.3367 45.2777 24.1542 44.5599L23.7141 46.5109ZM44.9293 48.4284C48.3567 48.3928 51.8904 48.227 55.4957 47.9451L55.3398 45.9512C51.7746 46.2299 48.2862 46.3934 44.9085 46.4285L44.9293 48.4284ZM66.0461 46.8251C69.5031 46.3672 72.9952 45.8202 76.4948 45.1953L76.1432 43.2265C72.6713 43.8464 69.2089 44.3887 65.7834 44.8424L66.0461 46.8251ZM86.8723 43.1238C90.3301 42.3624 93.7692 41.535 97.1628 40.6526L96.6595 38.717C93.2896 39.5932 89.8749 40.4147 86.4422 41.1706L86.8723 43.1238ZM107.34 37.803C110.793 36.7659 114.166 35.6796 117.427 34.5566L116.776 32.6656C113.541 33.7797 110.193 34.8579 106.765 35.8876L107.34 37.803ZM127.326 30.8992C130.789 29.5256 134.059 28.1197 137.088 26.701L136.24 24.8898C133.251 26.2895 130.018 27.6796 126.588 29.0402L127.326 30.8992ZM146.512 21.7809C148.138 20.82 149.633 19.861 150.979 18.9096L149.825 17.2763C148.53 18.1914 147.082 19.121 145.495 20.059L146.512 21.7809ZM151.05 18.8546C152.281 17.8073 153.55 16.8276 154.854 15.9145L153.706 14.2764C152.352 15.2252 151.033 16.2432 149.754 17.3313L151.05 18.8546ZM163.196 11.1649C166.123 9.84059 169.16 8.79033 172.269 8.00819L171.781 6.06861C168.56 6.87895 165.411 7.96794 162.372 9.34279L163.196 11.1649ZM181.762 6.46158C184.949 6.21135 188.171 6.21825 191.392 6.47645L191.552 4.48284C188.227 4.2164 184.9 4.20904 181.605 4.46772L181.762 6.46158ZM200.914 7.97441C204.027 8.70707 207.105 9.67412 210.114 10.8698L210.852 9.01113C207.752 7.77935 204.581 6.7828 201.372 6.0276L200.914 7.97441ZM218.795 15.0761C221.56 16.6741 224.227 18.4831 226.766 20.4976L228.009 18.9309C225.392 16.8549 222.644 14.9909 219.796 13.3445L218.795 15.0761ZM233.853 27.0294C236.023 29.3496 238.047 31.855 239.897 34.5408L241.544 33.4063C239.637 30.6378 237.551 28.055 235.314 25.6632L233.853 27.0294ZM244.768 42.8685C246.153 45.6926 247.365 48.6701 248.38 51.7973L250.282 51.1797C249.238 47.9626 247.991 44.8973 246.564 41.988L244.768 42.8685ZM250.736 61.1833C251.294 64.2552 251.675 67.4465 251.864 70.7547L253.861 70.641C253.668 67.2526 253.277 63.9798 252.704 60.8259L250.736 61.1833ZM251.866 80.4526C251.697 83.5776 251.363 86.7928 250.853 90.0962L252.83 90.4011C253.349 87.0345 253.69 83.7538 253.863 80.5611L251.866 80.4526ZM248.954 99.5884C248.209 102.632 247.32 105.743 246.28 108.919L248.18 109.542C249.236 106.319 250.14 103.159 250.897 100.064L248.954 99.5884Z" fill="white"/>
</svg>
