<svg width="82" height="91" viewBox="0 0 82 91" fill="none" xmlns="http://www.w3.org/2000/svg">
<path d="M75.089 90.0113C68.1701 87.6729 61.3765 84.9716 54.7368 81.9188C51.7378 80.5629 48.7302 79.1515 45.7528 77.6967C31.8066 70.9422 18.2961 63.3127 5.30292 54.8545C5.15149 54.751 5.00515 54.6476 4.8587 54.544C4.75061 54.4676 4.64246 54.3912 4.53217 54.3146C3.15049 53.3583 1.80802 52.4013 0.538273 51.446L79.2494 1.10998C79.2816 1.32638 79.3128 1.54282 79.3432 1.7593M75.089 90.0113C77.0942 88.6519 81.0347 85.9801 81.0347 85.9801M75.089 90.0113L74.8083 89.5976L75.014 89.4581M75.089 90.0113L75.2492 89.5377C75.1708 89.5112 75.0924 89.4847 75.014 89.4581M81.0347 85.9801L71.0842 65.5793L67.0109 57.2278L66.9957 57.2174L66.9499 57.6977L66.9182 57.6946L66.6707 57.6711M81.0347 85.9801L80.5852 86.1991L80.3952 85.8097M81.0347 85.9801L80.7539 85.5664L80.7538 85.5665L80.7532 85.5669L80.7511 85.5684L80.7426 85.5741L80.7092 85.5968L80.5807 85.6839L80.3952 85.8097M66.6707 57.6711L66.5478 57.4191L66.9638 57.2164L66.9815 57.2078L66.9656 57.197L67.013 56.6994L67.0448 56.7024L67.2839 56.7252C78.1644 40.4689 82.6133 20.7139 79.7771 1.26067C79.7357 1.30964 79.6961 1.35653 79.6609 1.39893L79.6519 1.4098L79.6517 1.40967C79.549 1.52635 79.4462 1.64289 79.3432 1.7593M66.6707 57.6711L70.6347 65.7984L71.0597 65.5913L70.6347 65.7984L80.3952 85.8097M66.6707 57.6711L66.0771 57.6146L66.5519 56.9161C77.5126 40.7934 82.0616 21.1402 79.3432 1.7593M79.3432 1.7593C66.4077 16.3803 51.181 28.8029 34.248 38.5488C24.0773 44.7094 12.8926 49.0303 1.20213 51.3184C2.35705 52.1784 3.56999 53.0406 4.81689 53.9037L4.81737 53.904C4.93681 53.9869 5.0466 54.0645 5.15428 54.1407C5.29437 54.2398 5.43091 54.3363 5.58057 54.4387C18.5547 62.8843 32.0453 70.5023 45.9709 77.2468L45.9725 77.2476C48.9451 78.7001 51.9482 80.1094 54.9429 81.4634L54.9458 81.4647C61.4944 84.4756 68.193 87.1437 75.014 89.4581M75.014 89.4581L78.5331 87.0722L80.1069 86.0051L80.3952 85.8097" stroke="white"/>
</svg>
