<svg width="91" height="82" viewBox="0 0 91 82" fill="none" xmlns="http://www.w3.org/2000/svg">
<path d="M54.8879 75.7063C63.3503 62.7194 70.9835 49.2155 77.7413 35.2761C79.1969 32.3002 80.6089 29.2941 81.9655 26.2966C85.0198 19.6601 87.7224 12.8698 90.0619 5.9543C88.7019 3.95009 86.0288 0.0115236 86.0288 0.0115236L65.618 9.95714L57.2346 14.042L57.2316 14.0738C40.6955 2.84302 20.472 -1.69512 0.607963 1.36746C0.764212 1.49542 0.928192 1.63762 1.08661 1.76916C15.8268 14.7296 28.342 30.0154 38.1435 47.0294C44.4723 57.4663 48.8514 68.977 51.0695 81.0065C52.1607 79.581 53.2547 78.0544 54.3478 76.4767C54.5281 76.217 54.708 75.9693 54.8879 75.7063Z" fill="#343849"/>
</svg>
